Coordinates
version=1
nRows=16
nColumns=36
inDegrees=yes

Units are S.I. units (second, meters, Newtons, ...)
If the header above contains a line with 'inDegrees', this indicates whether rotational values are in degrees (yes) or radians (no).

endheader
time	pelvis_tilt	pelvis_list	pelvis_rotation	pelvis_tx	pelvis_ty	pelvis_tz	hip_flexion_r	hip_adduction_r	hip_rotation_r	knee_angle_r	knee_angle_r_beta	ankle_angle_r	subtalar_angle_r	mtp_angle_r	hip_flexion_l	hip_adduction_l	hip_rotation_l	knee_angle_l	knee_angle_l_beta	ankle_angle_l	subtalar_angle_l	mtp_angle_l	lumbar_extension	lumbar_bending	lumbar_rotation	arm_flex_r	arm_add_r	arm_rot_r	elbow_flex_r	pro_sup_r	arm_flex_l	arm_add_l	arm_rot_l	elbow_flex_l	pro_sup_l
      0.80000000	    -39.89618790	     47.68139655	    -46.50404606	      1.44923254	      1.18024092	     -0.26031955	     84.56617778	     -1.00360583	    -39.31630323	     27.79729634	      0.48515434	     -8.62339349	    -34.77066231	     -7.49999987	     73.10474944	    -10.18888626	     38.71194272	      2.72438572	      0.04754950	    -49.32956218	     12.05307829	     -7.49999987	     71.18348149	      3.18396481	     52.57531096	    -30.06090054	     -8.76630992	     37.88760020	     10.30679992	     84.95934003	    -69.39565511	     -0.04263578	      5.04283087	     91.00798537	     96.94163026
      0.81666670	    -41.40962982	     48.04559359	    -46.09950987	      1.44827553	      1.18244525	     -0.26012167	     85.04567654	      0.78514394	    -39.45347520	     26.37245735	      0.46028621	     -8.45648167	    -34.77497438	     -7.49999987	     74.27176409	    -10.77531351	     39.16317273	      3.37088669	      0.05883307	    -49.37814453	     11.10391348	     -7.49999987	     72.74987389	      5.05606078	     56.38822559	    -32.21218838	     -5.07204455	     24.55107044	      8.76073139	     93.66389758	    -71.61791252	      2.86824320	     -5.87709727	     97.85402268	     97.02068671
      0.83333330	    -42.36418740	     49.04629378	    -45.87206841	      1.44620373	      1.18022233	     -0.25920401	     86.06285214	      1.93433471	    -39.48372366	     25.72902861	      0.44905626	     -7.83765257	    -34.77810680	     -7.49999987	     75.42394950	    -10.99041593	     39.44861680	      3.78674253	      0.06609113	    -49.44305026	      9.84704235	     -7.49999987	     74.40372941	      6.28005908	     60.64888350	    -34.15021563	     -1.96185901	     17.67326821	      8.24145611	     94.28003101	    -72.77000026	      3.05426779	    -10.71092447	    105.03683791	     97.90813563
      0.85000000	    -44.43954172	     49.83736335	    -44.74884851	      1.43997685	      1.17984259	     -0.25801127	     87.39622782	      3.49301071	    -39.50266766	     24.89263037	      0.43445836	     -6.65676059	    -34.78545013	     -7.49999987	     77.24403901	    -11.53002672	     39.55861182	      4.24453486	      0.07408111	    -49.47378995	      9.06454796	     -7.49999987	     76.44064141	      7.48680699	     63.17878055	    -35.39946211	      0.36042127	     12.86263359	      7.24619449	     93.57856523	    -74.38337180	      2.53900801	    -12.06464703	    110.37117360	     97.64071658
      0.86666670	    -46.00102342	     49.63031961	    -44.18962508	      1.43836971	      1.17716801	     -0.25669504	     87.96262080	      5.25470609	    -39.48391973	     24.40791308	      0.42599845	     -5.18095848	    -34.79262397	     -7.49999987	     78.32500208	    -12.30821385	     39.62788518	      4.65843206	      0.08130498	    -49.51105550	      8.95837506	     -7.49999987	     77.39911036	      9.11834496	     64.75253215	    -36.76548504	      2.07253757	      5.73355807	      6.82446179	     97.35047462	    -75.57951619	      1.60315672	    -12.11343217	    115.40091583	     98.66889782
      0.88333330	    -47.22786320	     50.24692791	    -43.13926815	      1.43096419	      1.17746997	     -0.25555529	     89.02785185	      6.24353587	    -39.42765970	     23.70106664	      0.41366165	     -4.74115939	    -34.79607523	     -7.49999987	     79.72400588	    -12.24999593	     39.69842900	      5.37492355	      0.09381011	    -49.54303356	      8.31112893	     -7.49999987	     78.51580158	      8.99507924	     66.06456022	    -36.86373675	      3.23613022	      3.92682770	      6.26797961	     98.48827434	    -75.90509045	      0.94503266	    -12.30942184	    118.60854179	     99.15257976
      0.90000000	    -48.03155382	     50.80760676	    -42.21117778	      1.43474368	      1.17436869	     -0.25596280	     89.51729640	      6.95763681	    -39.34577485	     22.25227300	      0.38837543	     -5.95477634	    -34.79927103	     -7.49999987	     80.36360152	    -11.96818841	     39.74545233	      5.22079033	      0.09111998	    -49.58652536	      7.99780150	     -7.49999987	     79.60625262	      9.01786822	     67.44913889	    -37.30060323	      4.35381021	      3.70085633	      5.37826527	     98.46353481	    -76.43314024	      0.40649099	    -13.14758868	    121.25773956	     99.09050124
      0.91666670	    -49.87226359	     52.46574624	    -40.14484031	      1.42745564	      1.16947132	     -0.25588164	     91.70292040	      6.87256696	    -39.19165626	     21.95258199	      0.38314484	     -6.44132999	    -34.79837632	     -7.49999987	     82.22873794	    -11.37698351	     39.77344902	      5.25459537	      0.09170999	    -49.59303411	      7.76325199	     -7.49999987	     81.83950005	      8.07653085	     69.14177738	    -37.61644728	      5.50366823	      2.85468474	      4.97585234	     98.37323678	    -76.78654924	     -0.63407435	    -13.69135937	    124.21263254	     99.19739179
      0.93333330	    -52.19004254	     53.18004646	    -37.94091150	      1.42037072	      1.17136526	     -0.25422432	     92.98999792	      7.61048274	    -39.18365778	     20.30794469	      0.35444050	     -7.87918085	    -34.80235021	     -7.49999987	     83.84681657	    -11.53255777	     39.78873957	      5.03848326	      0.08793812	    -49.60722144	      8.15741331	     -7.49999987	     83.58473920	      7.50161229	     69.24422919	    -37.43627651	      6.31735965	     -0.80049121	      4.68126640	     99.53865946	    -77.10067706	     -0.70169270	    -15.02101921	    123.32965844	     99.45229249
      0.95000000	    -55.73357340	     53.57308186	    -35.88626640	      1.41863155	      1.17037059	     -0.25410698	     94.00007363	      9.92036172	    -39.36800065	     17.30024923	      0.30194631	     -9.62453353	    -34.80877300	     -7.49999987	     85.81172118	    -12.96476742	     39.79889700	      4.19237628	      0.07317077	    -49.62224023	      9.51152957	     -7.49999987	     86.03928909	      8.45528165	     69.20304339	    -38.04494422	      7.14093092	     -3.67040097	      4.47376547	    102.36786645	    -78.79114713	     -0.96517263	    -17.01326782	    122.81542631	     98.88034767
      0.96666670	    -58.56800767	     52.69462793	    -34.51570373	      1.40625539	      1.17284559	     -0.24948657	     93.95892471	     12.72302251	    -39.53984927	     13.76677210	      0.24027550	    -11.98017050	    -34.81631355	     -7.49999987	     87.02570716	    -14.78724281	     39.80932511	      3.27538332	      0.05716622	    -49.65721831	     11.48592497	     -7.49999987	     87.33371070	      9.39906703	     68.33400469	    -38.05610237	      7.81184209	     -4.48095676	      3.93241990	    102.85762393	    -79.35402667	     -1.28260589	    -18.59869813	    122.22426148	     99.56593248
      0.98333330	    -60.51915159	     52.77585398	    -33.27449158	      1.40467620	      1.16950942	     -0.24892332	     94.51157357	     14.11966588	    -39.55581055	     11.96692735	      0.20886228	    -13.09634439	    -34.82091976	     -7.49999987	     88.36603034	    -15.40292932	     39.83438785	      3.29789226	      0.05755908	    -49.67277397	     11.42295753	     -7.49999987	     88.45298687	      9.61882271	     69.06372529	    -38.36456854	      8.66152726	     -4.90737061	      3.69749038	    102.81014803	    -79.66222631	     -2.40317539	    -19.81185575	    123.00131373	     99.29364096
      1.00000000	    -62.15427698	     52.82138546	    -32.32941493	      1.39809789	      1.16472507	     -0.24605861	     95.17767553	     15.32882065	    -39.54198189	     10.97933613	      0.19162557	    -13.33407972	    -34.82630743	     -7.49999987	     89.55278858	    -15.97253982	     39.85564748	      3.40208091	      0.05937751	    -49.68843511	     10.75821781	     -7.49999987	     89.10799008	      9.85165345	     69.80055929	    -38.61710330	      9.45345876	     -3.27532428	      3.46963887	    100.93614435	    -79.34445183	     -3.75222235	    -20.77751059	    124.45914952	     99.27041417
      1.01666670	    -62.76742260	     52.87338991	    -32.55326998	      1.38868315	      1.16873970	     -0.24391514	     95.16883586	     16.93157038	    -39.54453772	      9.73386033	      0.16988791	    -14.08798498	    -34.82802244	     -7.49999987	     90.01635584	    -16.87298044	     39.86841511	      3.55642019	      0.06207124	    -49.68747584	      9.82297521	     -7.49999987	     89.28328864	     10.44934143	     70.40022145	    -38.32315898	     10.18631107	     -5.71218950	      3.26603223	    102.08210073	    -78.64195754	     -4.21403077	    -22.60680462	    124.71489298	     98.76269105
      1.03333330	    -62.79178813	     52.74280803	    -32.92726080	      1.38632715	      1.17166806	     -0.24276682	     94.91150854	     18.04859237	    -39.52655102	      8.85578913	      0.15456268	    -14.79446156	    -34.82724571	     -7.49999987	     89.90963043	    -17.37549305	     39.87347785	      3.54784190	      0.06192152	    -49.67960123	      9.36800772	     -7.49999987	     89.24544372	     10.95245235	     69.89520675	    -37.92730249	     10.18854933	     -7.15586738	      2.90053510	    102.32139578	    -78.76854480	     -3.02281025	    -24.70835401	    122.00091532	     98.47068162
      1.05000000	    -63.28259876	     52.39129163	    -32.99844779	      1.38205209	      1.17064610	     -0.24026484	     94.88995787	     19.23035549	    -39.55732812	      8.01783311	      0.13993759	    -15.20419960	    -34.82904281	     -7.49999987	     89.80941682	    -18.19166301	     39.87296988	      2.80805014	      0.04900972	    -49.68969358	      9.82833991	     -7.49999987	     89.32977314	     11.64030027	     69.42596342	    -37.88298964	     10.29637658	     -7.71530571	      2.64111089	    101.62861216	    -78.57185880	     -2.56804700	    -27.07851387	    120.23952070	     97.71266185
